<mxfile host="Electron" modified="2024-09-02T17:57:03.129Z" agent="Mozilla/5.0 (Windows NT 10.0; Win64; x64) AppleWebKit/537.36 (KHTML, like Gecko) draw.io/22.1.18 Chrome/120.0.6099.199 Electron/28.1.2 Safari/537.36" etag="at_AEGYa-smwoB-se82X" version="22.1.18" type="device">
  <diagram name="Page-1" id="eWCmjxnQBLWSfNdZFeXs">
    <mxGraphModel dx="2431" dy="2205" grid="1" gridSize="10" guides="1" tooltips="1" connect="1" arrows="1" fold="1" page="1" pageScale="1" pageWidth="850" pageHeight="1100" math="0" shadow="0">
      <root>
        <mxCell id="0" />
        <mxCell id="1" parent="0" />
        <mxCell id="bpmu-QT5ZQkDGDNudNJq-18" style="rounded=0;orthogonalLoop=1;jettySize=auto;html=1;exitX=0.5;exitY=1;exitDx=0;exitDy=0;entryX=0.5;entryY=0;entryDx=0;entryDy=0;edgeStyle=orthogonalEdgeStyle;curved=1;" parent="1" source="bpmu-QT5ZQkDGDNudNJq-1" target="bpmu-QT5ZQkDGDNudNJq-4" edge="1">
          <mxGeometry relative="1" as="geometry" />
        </mxCell>
        <mxCell id="bpmu-QT5ZQkDGDNudNJq-27" style="edgeStyle=orthogonalEdgeStyle;rounded=0;orthogonalLoop=1;jettySize=auto;html=1;exitX=0.5;exitY=1;exitDx=0;exitDy=0;entryX=0.5;entryY=0;entryDx=0;entryDy=0;curved=1;" parent="1" source="bpmu-QT5ZQkDGDNudNJq-1" target="bpmu-QT5ZQkDGDNudNJq-2" edge="1">
          <mxGeometry relative="1" as="geometry" />
        </mxCell>
        <mxCell id="bpmu-QT5ZQkDGDNudNJq-1" value="&lt;font style=&quot;font-size: 14px;&quot;&gt;Fib(6)&lt;/font&gt;" style="rounded=0;whiteSpace=wrap;html=1;" parent="1" vertex="1">
          <mxGeometry x="400" y="40" width="120" height="40" as="geometry" />
        </mxCell>
        <mxCell id="bpmu-QT5ZQkDGDNudNJq-28" style="edgeStyle=orthogonalEdgeStyle;rounded=0;orthogonalLoop=1;jettySize=auto;html=1;exitX=0.5;exitY=1;exitDx=0;exitDy=0;entryX=0.5;entryY=0;entryDx=0;entryDy=0;curved=1;" parent="1" source="bpmu-QT5ZQkDGDNudNJq-2" target="bpmu-QT5ZQkDGDNudNJq-8" edge="1">
          <mxGeometry relative="1" as="geometry" />
        </mxCell>
        <mxCell id="bpmu-QT5ZQkDGDNudNJq-29" style="edgeStyle=orthogonalEdgeStyle;rounded=0;orthogonalLoop=1;jettySize=auto;html=1;exitX=0.5;exitY=1;exitDx=0;exitDy=0;entryX=0.5;entryY=0;entryDx=0;entryDy=0;curved=1;" parent="1" source="bpmu-QT5ZQkDGDNudNJq-2" target="bpmu-QT5ZQkDGDNudNJq-7" edge="1">
          <mxGeometry relative="1" as="geometry" />
        </mxCell>
        <mxCell id="bpmu-QT5ZQkDGDNudNJq-2" value="&lt;font style=&quot;font-size: 14px;&quot;&gt;Fib(4)&lt;/font&gt;" style="rounded=0;whiteSpace=wrap;html=1;fillColor=#FF9999;" parent="1" vertex="1">
          <mxGeometry x="800" y="160" width="120" height="40" as="geometry" />
        </mxCell>
        <mxCell id="bpmu-QT5ZQkDGDNudNJq-19" style="rounded=0;orthogonalLoop=1;jettySize=auto;html=1;exitX=0.5;exitY=1;exitDx=0;exitDy=0;entryX=0.5;entryY=0;entryDx=0;entryDy=0;edgeStyle=orthogonalEdgeStyle;curved=1;" parent="1" source="bpmu-QT5ZQkDGDNudNJq-4" target="bpmu-QT5ZQkDGDNudNJq-5" edge="1">
          <mxGeometry relative="1" as="geometry" />
        </mxCell>
        <mxCell id="bpmu-QT5ZQkDGDNudNJq-20" style="rounded=0;orthogonalLoop=1;jettySize=auto;html=1;exitX=0.5;exitY=1;exitDx=0;exitDy=0;entryX=0.5;entryY=0;entryDx=0;entryDy=0;edgeStyle=orthogonalEdgeStyle;curved=1;" parent="1" source="bpmu-QT5ZQkDGDNudNJq-4" target="bpmu-QT5ZQkDGDNudNJq-6" edge="1">
          <mxGeometry relative="1" as="geometry" />
        </mxCell>
        <mxCell id="bpmu-QT5ZQkDGDNudNJq-4" value="&lt;font style=&quot;font-size: 14px;&quot;&gt;Fib(5)&lt;/font&gt;" style="rounded=0;whiteSpace=wrap;html=1;fillColor=#FFFFFF;" parent="1" vertex="1">
          <mxGeometry y="160" width="120" height="40" as="geometry" />
        </mxCell>
        <mxCell id="bpmu-QT5ZQkDGDNudNJq-21" style="rounded=0;orthogonalLoop=1;jettySize=auto;html=1;exitX=0.5;exitY=1;exitDx=0;exitDy=0;entryX=0.5;entryY=0;entryDx=0;entryDy=0;edgeStyle=orthogonalEdgeStyle;curved=1;" parent="1" source="bpmu-QT5ZQkDGDNudNJq-5" target="bpmu-QT5ZQkDGDNudNJq-9" edge="1">
          <mxGeometry relative="1" as="geometry" />
        </mxCell>
        <mxCell id="bpmu-QT5ZQkDGDNudNJq-22" style="rounded=0;orthogonalLoop=1;jettySize=auto;html=1;exitX=0.5;exitY=1;exitDx=0;exitDy=0;entryX=0.5;entryY=0;entryDx=0;entryDy=0;edgeStyle=orthogonalEdgeStyle;curved=1;" parent="1" source="bpmu-QT5ZQkDGDNudNJq-5" target="bpmu-QT5ZQkDGDNudNJq-12" edge="1">
          <mxGeometry relative="1" as="geometry" />
        </mxCell>
        <mxCell id="bpmu-QT5ZQkDGDNudNJq-5" value="&lt;font style=&quot;font-size: 14px;&quot;&gt;Fib(4)&lt;/font&gt;" style="rounded=0;whiteSpace=wrap;html=1;fillColor=#99CCFF;" parent="1" vertex="1">
          <mxGeometry x="-240" y="280" width="120" height="40" as="geometry" />
        </mxCell>
        <mxCell id="bpmu-QT5ZQkDGDNudNJq-23" style="rounded=0;orthogonalLoop=1;jettySize=auto;html=1;exitX=0.5;exitY=1;exitDx=0;exitDy=0;entryX=0.5;entryY=0;entryDx=0;entryDy=0;edgeStyle=orthogonalEdgeStyle;curved=1;" parent="1" source="bpmu-QT5ZQkDGDNudNJq-6" target="bpmu-QT5ZQkDGDNudNJq-10" edge="1">
          <mxGeometry relative="1" as="geometry" />
        </mxCell>
        <mxCell id="bpmu-QT5ZQkDGDNudNJq-26" style="edgeStyle=orthogonalEdgeStyle;rounded=0;orthogonalLoop=1;jettySize=auto;html=1;exitX=0.5;exitY=1;exitDx=0;exitDy=0;entryX=0.5;entryY=0;entryDx=0;entryDy=0;curved=1;" parent="1" source="bpmu-QT5ZQkDGDNudNJq-6" target="bpmu-QT5ZQkDGDNudNJq-11" edge="1">
          <mxGeometry relative="1" as="geometry" />
        </mxCell>
        <mxCell id="bpmu-QT5ZQkDGDNudNJq-6" value="&lt;font style=&quot;font-size: 14px;&quot;&gt;Fib(3)&lt;/font&gt;" style="rounded=0;whiteSpace=wrap;html=1;fillColor=#FF9999;" parent="1" vertex="1">
          <mxGeometry x="240" y="280" width="120" height="40" as="geometry" />
        </mxCell>
        <mxCell id="bpmu-QT5ZQkDGDNudNJq-7" value="&lt;font style=&quot;font-size: 14px;&quot;&gt;Fib(2)&lt;/font&gt;" style="rounded=0;whiteSpace=wrap;html=1;" parent="1" vertex="1">
          <mxGeometry x="920" y="280" width="120" height="40" as="geometry" />
        </mxCell>
        <mxCell id="bpmu-QT5ZQkDGDNudNJq-30" style="edgeStyle=orthogonalEdgeStyle;rounded=0;orthogonalLoop=1;jettySize=auto;html=1;exitX=0.5;exitY=1;exitDx=0;exitDy=0;entryX=0.5;entryY=0;entryDx=0;entryDy=0;curved=1;" parent="1" source="bpmu-QT5ZQkDGDNudNJq-8" target="bpmu-QT5ZQkDGDNudNJq-13" edge="1">
          <mxGeometry relative="1" as="geometry" />
        </mxCell>
        <mxCell id="bpmu-QT5ZQkDGDNudNJq-31" style="edgeStyle=orthogonalEdgeStyle;rounded=0;orthogonalLoop=1;jettySize=auto;html=1;exitX=0.5;exitY=1;exitDx=0;exitDy=0;entryX=0.5;entryY=0;entryDx=0;entryDy=0;curved=1;" parent="1" source="bpmu-QT5ZQkDGDNudNJq-8" target="bpmu-QT5ZQkDGDNudNJq-14" edge="1">
          <mxGeometry relative="1" as="geometry" />
        </mxCell>
        <mxCell id="bpmu-QT5ZQkDGDNudNJq-8" value="&lt;font style=&quot;font-size: 14px;&quot;&gt;Fib(3)&lt;/font&gt;" style="rounded=0;whiteSpace=wrap;html=1;fillColor=#FF9999;" parent="1" vertex="1">
          <mxGeometry x="680" y="280" width="120" height="40" as="geometry" />
        </mxCell>
        <mxCell id="bpmu-QT5ZQkDGDNudNJq-24" style="rounded=0;orthogonalLoop=1;jettySize=auto;html=1;exitX=0.5;exitY=1;exitDx=0;exitDy=0;entryX=0.5;entryY=0;entryDx=0;entryDy=0;edgeStyle=orthogonalEdgeStyle;curved=1;" parent="1" source="bpmu-QT5ZQkDGDNudNJq-9" target="bpmu-QT5ZQkDGDNudNJq-15" edge="1">
          <mxGeometry relative="1" as="geometry" />
        </mxCell>
        <mxCell id="bpmu-QT5ZQkDGDNudNJq-25" style="rounded=0;orthogonalLoop=1;jettySize=auto;html=1;exitX=0.5;exitY=1;exitDx=0;exitDy=0;entryX=0.5;entryY=0;entryDx=0;entryDy=0;edgeStyle=orthogonalEdgeStyle;curved=1;" parent="1" source="bpmu-QT5ZQkDGDNudNJq-9" target="bpmu-QT5ZQkDGDNudNJq-16" edge="1">
          <mxGeometry relative="1" as="geometry" />
        </mxCell>
        <mxCell id="bpmu-QT5ZQkDGDNudNJq-9" value="&lt;font style=&quot;font-size: 14px;&quot;&gt;Fib(3)&lt;/font&gt;" style="rounded=0;whiteSpace=wrap;html=1;fillColor=#99CCFF;" parent="1" vertex="1">
          <mxGeometry x="-400" y="400" width="120" height="40" as="geometry" />
        </mxCell>
        <mxCell id="bpmu-QT5ZQkDGDNudNJq-10" value="&lt;font style=&quot;font-size: 14px;&quot;&gt;Fib(2)&lt;/font&gt;" style="rounded=0;whiteSpace=wrap;html=1;" parent="1" vertex="1">
          <mxGeometry x="80" y="400" width="120" height="40" as="geometry" />
        </mxCell>
        <mxCell id="bpmu-QT5ZQkDGDNudNJq-11" value="&lt;font style=&quot;font-size: 14px;&quot;&gt;Fib(1)&lt;/font&gt;" style="rounded=0;whiteSpace=wrap;html=1;" parent="1" vertex="1">
          <mxGeometry x="400" y="400" width="120" height="40" as="geometry" />
        </mxCell>
        <mxCell id="bpmu-QT5ZQkDGDNudNJq-12" value="&lt;font style=&quot;font-size: 14px;&quot;&gt;Fib(2)&lt;/font&gt;" style="rounded=0;whiteSpace=wrap;html=1;" parent="1" vertex="1">
          <mxGeometry x="-80" y="400" width="120" height="40" as="geometry" />
        </mxCell>
        <mxCell id="bpmu-QT5ZQkDGDNudNJq-13" value="&lt;font style=&quot;font-size: 14px;&quot;&gt;Fib(2)&lt;/font&gt;" style="rounded=0;whiteSpace=wrap;html=1;" parent="1" vertex="1">
          <mxGeometry x="560" y="400" width="120" height="40" as="geometry" />
        </mxCell>
        <mxCell id="bpmu-QT5ZQkDGDNudNJq-14" value="&lt;font style=&quot;font-size: 14px;&quot;&gt;Fib(1)&lt;/font&gt;" style="rounded=0;whiteSpace=wrap;html=1;" parent="1" vertex="1">
          <mxGeometry x="800" y="400" width="120" height="40" as="geometry" />
        </mxCell>
        <mxCell id="bpmu-QT5ZQkDGDNudNJq-15" value="&lt;font style=&quot;font-size: 14px;&quot;&gt;Fib(2)&lt;/font&gt;" style="rounded=0;whiteSpace=wrap;html=1;" parent="1" vertex="1">
          <mxGeometry x="-520" y="520" width="120" height="40" as="geometry" />
        </mxCell>
        <mxCell id="bpmu-QT5ZQkDGDNudNJq-16" value="&lt;font style=&quot;font-size: 14px;&quot;&gt;Fib(1)&lt;/font&gt;" style="rounded=0;whiteSpace=wrap;html=1;" parent="1" vertex="1">
          <mxGeometry x="-280" y="520" width="120" height="40" as="geometry" />
        </mxCell>
        <mxCell id="OU6dP0pwABz_9AD8Dz01-1" value="&lt;b&gt;&lt;font style=&quot;font-size: 14px;&quot;&gt;Legend&lt;/font&gt;&lt;/b&gt;" style="text;html=1;strokeColor=none;fillColor=none;align=center;verticalAlign=middle;whiteSpace=wrap;rounded=0;" vertex="1" parent="1">
          <mxGeometry x="-480" y="-80" width="60" height="30" as="geometry" />
        </mxCell>
        <mxCell id="OU6dP0pwABz_9AD8Dz01-3" value="" style="verticalLabelPosition=bottom;verticalAlign=top;html=1;shape=mxgraph.basic.x;fillColor=none;" vertex="1" parent="1">
          <mxGeometry x="440" y="400" width="40" height="40" as="geometry" />
        </mxCell>
        <mxCell id="OU6dP0pwABz_9AD8Dz01-4" value="" style="verticalLabelPosition=bottom;verticalAlign=top;html=1;shape=mxgraph.basic.x;fillColor=none;" vertex="1" parent="1">
          <mxGeometry x="120" y="400" width="40" height="40" as="geometry" />
        </mxCell>
        <mxCell id="OU6dP0pwABz_9AD8Dz01-6" value="" style="verticalLabelPosition=bottom;verticalAlign=top;html=1;shape=mxgraph.basic.x;fillColor=none;" vertex="1" parent="1">
          <mxGeometry x="600" y="400" width="40" height="40" as="geometry" />
        </mxCell>
        <mxCell id="OU6dP0pwABz_9AD8Dz01-7" value="" style="verticalLabelPosition=bottom;verticalAlign=top;html=1;shape=mxgraph.basic.x;fillColor=none;" vertex="1" parent="1">
          <mxGeometry x="840" y="400" width="40" height="40" as="geometry" />
        </mxCell>
        <mxCell id="OU6dP0pwABz_9AD8Dz01-8" value="" style="verticalLabelPosition=bottom;verticalAlign=top;html=1;shape=mxgraph.basic.x;fillColor=none;" vertex="1" parent="1">
          <mxGeometry x="960" y="280" width="40" height="40" as="geometry" />
        </mxCell>
        <mxCell id="OU6dP0pwABz_9AD8Dz01-9" value="&lt;span style=&quot;font-size: 14px;&quot;&gt;Value is calculated and cached&lt;/span&gt;" style="rounded=0;whiteSpace=wrap;html=1;fillColor=#FF9999;" vertex="1" parent="1">
          <mxGeometry x="-480" y="40" width="120" height="40" as="geometry" />
        </mxCell>
        <mxCell id="OU6dP0pwABz_9AD8Dz01-10" value="&lt;font style=&quot;font-size: 14px;&quot;&gt;Value is calculated and not cached&lt;/font&gt;" style="rounded=0;whiteSpace=wrap;html=1;" vertex="1" parent="1">
          <mxGeometry x="-480" y="-40" width="120" height="40" as="geometry" />
        </mxCell>
        <mxCell id="OU6dP0pwABz_9AD8Dz01-12" value="&lt;font style=&quot;font-size: 14px;&quot;&gt;Value is retrieved from cache&lt;/font&gt;" style="rounded=0;whiteSpace=wrap;html=1;fillColor=#99CCFF;" vertex="1" parent="1">
          <mxGeometry x="-480" y="120" width="120" height="40" as="geometry" />
        </mxCell>
        <mxCell id="OU6dP0pwABz_9AD8Dz01-13" value="&lt;font style=&quot;font-size: 14px;&quot;&gt;The time complexity of an un-memoized Fibonacci function call is exponential (2^N) due to the branching behavior (below).&amp;nbsp; With memoization, we cache the results of function calls where possible so that they can be re-used if the identical function call is made in other branches.&lt;/font&gt;" style="text;html=1;strokeColor=none;fillColor=none;align=center;verticalAlign=middle;whiteSpace=wrap;rounded=0;" vertex="1" parent="1">
          <mxGeometry x="-240" y="-160" width="340" height="110" as="geometry" />
        </mxCell>
        <mxCell id="OU6dP0pwABz_9AD8Dz01-15" value="" style="verticalLabelPosition=bottom;verticalAlign=top;html=1;shape=mxgraph.basic.x;fillColor=none;" vertex="1" parent="1">
          <mxGeometry x="-440" y="200" width="40" height="40" as="geometry" />
        </mxCell>
        <mxCell id="OU6dP0pwABz_9AD8Dz01-16" value="&lt;font style=&quot;font-size: 14px;&quot;&gt;Calculation is not required&lt;/font&gt;" style="text;html=1;strokeColor=none;fillColor=none;align=center;verticalAlign=middle;whiteSpace=wrap;rounded=0;" vertex="1" parent="1">
          <mxGeometry x="-390" y="210" width="100" height="30" as="geometry" />
        </mxCell>
      </root>
    </mxGraphModel>
  </diagram>
</mxfile>
